<?xml version='1.0' encoding='iso-8859-1'?>
<svg version="1.1" xmlns="http://www.w3.org/2000/svg" viewBox="0 0 36 36" xmlns:xlink="http://www.w3.org/1999/xlink" enable-background="new 0 0 36 36">
  <g>
    <g>
      <path fill-rule="evenodd" d="M34,5H2C0.896,5,0,5.896,0,7v22c0,1.104,0.896,2,2,2h32    c1.104,0,2-0.896,2-2V7C36,5.896,35.104,5,34,5z M34,29H2V7h32V29z M4.875,11l11.711,11.711c0.781,0.781,2.047,0.781,2.828,0    l11.673-11.673c0.244-0.183,0.413-0.46,0.413-0.788c0-0.553-0.447-1-1-1c-0.256,0-0.516,0.104-0.693,0.262L29.828,9.5L18,21.297    L6.286,9.613C6.102,9.396,5.838,9.25,5.531,9.25c-0.553,0-1,0.447-1,1c0,0.3,0.139,0.562,0.349,0.744L4.875,11z"/>
    </g>
  </g>
</svg>
